<svg width="20" height="21" viewBox="0 0 20 21" fill="none" xmlns="http://www.w3.org/2000/svg">
<mask id="mask0_300_2522" style="mask-type:alpha" maskUnits="userSpaceOnUse" x="0" y="0" width="20" height="21">
<rect y="0.5" width="20" height="20" fill="#D9D9D9"/>
</mask>
<g mask="url(#mask0_300_2522)">
<path d="M10 10.5C9.16667 10.5 8.45833 10.2083 7.875 9.625C7.29167 9.04167 7 8.33333 7 7.5C7 6.66667 7.29167 5.95833 7.875 5.375C8.45833 4.79167 9.16667 4.5 10 4.5C10.8333 4.5 11.5417 4.79167 12.125 5.375C12.7083 5.95833 13 6.66667 13 7.5C13 8.33333 12.7083 9.04167 12.125 9.625C11.5417 10.2083 10.8333 10.5 10 10.5ZM4 16.5V14.5C4 14.1806 4.08681 13.8785 4.26042 13.5938C4.43403 13.309 4.67361 13.0694 4.97917 12.875C5.74306 12.4306 6.55208 12.0903 7.40625 11.8542C8.26042 11.6181 9.125 11.5 10 11.5C10.875 11.5 11.7396 11.6181 12.5938 11.8542C13.4479 12.0903 14.2569 12.4306 15.0208 12.875C15.3264 13.0556 15.566 13.2917 15.7396 13.5833C15.9132 13.875 16 14.1806 16 14.5V16.5H4Z" fill="#B4FF1F"/>
</g>
</svg>
