<svg width="24" height="24" viewBox="0 0 24 24" fill="none" xmlns="http://www.w3.org/2000/svg">
<mask id="mask0_302_2987" style="mask-type:alpha" maskUnits="userSpaceOnUse" x="0" y="0" width="24" height="24">
<rect width="24" height="24" fill="#D9D9D9"/>
</mask>
<g mask="url(#mask0_302_2987)">
<path d="M17.7 13.2V11.1H15.6V9.3H17.7V7.2H19.5V9.3H21.6V11.1H19.5V13.2H17.7ZM9.59999 12C8.59999 12 7.74999 11.65 7.04999 10.95C6.34999 10.25 5.99999 9.4 5.99999 8.4C5.99999 7.4 6.34999 6.55 7.04999 5.85C7.74999 5.15 8.59999 4.8 9.59999 4.8C10.6 4.8 11.45 5.15 12.15 5.85C12.85 6.55 13.2 7.4 13.2 8.4C13.2 9.4 12.85 10.25 12.15 10.95C11.45 11.65 10.6 12 9.59999 12ZM2.39999 19.2V16.9C2.39999 16.4703 2.50416 16.0754 2.71249 15.7153C2.92083 15.3551 3.20833 15.0667 3.57499 14.85C4.49166 14.3167 5.45833 13.9083 6.47499 13.625C7.49166 13.3417 8.53333 13.2 9.59999 13.2C10.6667 13.2 11.7083 13.3417 12.725 13.625C13.7417 13.9083 14.7083 14.3167 15.625 14.85C15.9917 15.0667 16.2792 15.3551 16.4875 15.7153C16.6958 16.0754 16.8 16.4703 16.8 16.9V19.2H2.39999Z" fill="#B4FF1F"/>
</g>
</svg>
