<svg width="24" height="24" viewBox="0 0 24 24" fill="none" xmlns="http://www.w3.org/2000/svg">
<mask id="mask0_302_2976" style="mask-type:alpha" maskUnits="userSpaceOnUse" x="0" y="0" width="24" height="24">
<rect width="24" height="24" fill="#D9D9D9"/>
</mask>
<g mask="url(#mask0_302_2976)">
<path d="M12 12C11 12 10.15 11.65 9.45 10.95C8.75 10.25 8.4 9.4 8.4 8.4C8.4 7.4 8.75 6.55 9.45 5.85C10.15 5.15 11 4.8 12 4.8C13 4.8 13.85 5.15 14.55 5.85C15.25 6.55 15.6 7.4 15.6 8.4C15.6 9.4 15.25 10.25 14.55 10.95C13.85 11.65 13 12 12 12ZM4.8 19.2V16.8C4.8 16.4167 4.90417 16.0542 5.1125 15.7125C5.32084 15.3708 5.60834 15.0833 5.975 14.85C6.89167 14.3167 7.8625 13.9083 8.8875 13.625C9.9125 13.3417 10.95 13.2 12 13.2C13.05 13.2 14.0875 13.3417 15.1125 13.625C16.1375 13.9083 17.1083 14.3167 18.025 14.85C18.3917 15.0667 18.6792 15.35 18.8875 15.7C19.0958 16.05 19.2 16.4167 19.2 16.8V19.2H4.8Z" fill="#B4FF1F"/>
</g>
</svg>
