<svg width="24" height="24" viewBox="0 0 24 24" fill="none" xmlns="http://www.w3.org/2000/svg">
<mask id="mask0_299_2083" style="mask-type:alpha" maskUnits="userSpaceOnUse" x="0" y="0" width="24" height="24">
<rect width="24" height="24" fill="#D9D9D9"/>
</mask>
<g mask="url(#mask0_299_2083)">
<path d="M4.125 19.775C3.60937 19.775 3.16796 19.5914 2.80077 19.2242C2.43359 18.857 2.25 18.4156 2.25 17.9V6.09998C2.25 5.58434 2.43359 5.14293 2.80077 4.77575C3.16796 4.40857 3.60937 4.22498 4.125 4.22498H19.875C20.3906 4.22498 20.832 4.40857 21.1992 4.77575C21.5664 5.14293 21.75 5.58434 21.75 6.09998V17.9C21.75 18.4156 21.5664 18.857 21.1992 19.2242C20.832 19.5914 20.3906 19.775 19.875 19.775H4.125ZM12 12.9125L4.125 7.97498V17.9H19.875V7.97498L12 12.9125ZM12 11.025L19.85 6.09998H4.15L12 11.025ZM4.125 7.97498V6.09998V17.9V7.97498Z" fill="#B4FF1F"/>
</g>
</svg>
