<svg width="20" height="21" viewBox="0 0 20 21" fill="none" xmlns="http://www.w3.org/2000/svg">
<mask id="mask0_300_2517" style="mask-type:alpha" maskUnits="userSpaceOnUse" x="0" y="0" width="20" height="21">
<rect y="0.5" width="20" height="20" fill="#D9D9D9"/>
</mask>
<g mask="url(#mask0_300_2517)">
<path d="M6 13C6.69444 13 7.28472 12.7569 7.77083 12.2708C8.25694 11.7847 8.5 11.1944 8.5 10.5C8.5 9.80556 8.25694 9.21528 7.77083 8.72917C7.28472 8.24306 6.69444 8 6 8C5.30556 8 4.71528 8.24306 4.22917 8.72917C3.74306 9.21528 3.5 9.80556 3.5 10.5C3.5 11.1944 3.74306 11.7847 4.22917 12.2708C4.71528 12.7569 5.30556 13 6 13ZM6 15.5C4.61111 15.5 3.43056 15.0139 2.45833 14.0417C1.48611 13.0694 1 11.8889 1 10.5C1 9.11111 1.48611 7.93056 2.45833 6.95833C3.43056 5.98611 4.61111 5.5 6 5.5C7.08333 5.5 8.05903 5.82292 8.92708 6.46875C9.79514 7.11458 10.4028 7.95833 10.75 9H17.5L19 10.5L16.25 13.8125L14.5 12L13 13.5L11.5 12H10.75C10.4167 13.0417 9.81302 13.8854 8.93906 14.5312C8.06509 15.1771 7.0854 15.5 6 15.5Z" fill="#B4FF1F"/>
</g>
</svg>
