<svg width="25" height="25" viewBox="0 0 25 25" fill="none" xmlns="http://www.w3.org/2000/svg">
<mask id="mask0_508_7" style="mask-type:alpha" maskUnits="userSpaceOnUse" x="0" y="0" width="25" height="25">
<rect x="0.729187" y="0.144287" width="24" height="24" fill="#D9D9D9"/>
</mask>
<g mask="url(#mask0_508_7)">
<path d="M12.6542 22.1443C11.9542 22.1443 11.275 22.0693 10.6167 21.9193C9.95835 21.7693 9.36252 21.5776 8.82919 21.3443C8.06252 21.011 7.43752 20.6068 6.95419 20.1318C6.47085 19.6568 6.22919 19.1276 6.22919 18.5443V12.7693C6.22919 12.2526 6.42502 11.7776 6.81669 11.3443C7.20835 10.911 7.71252 10.5276 8.32919 10.1943C8.96252 9.86095 9.65835 9.60262 10.4167 9.41929C11.175 9.23595 11.9459 9.14429 12.7292 9.14429C13.5125 9.14429 14.2834 9.23595 15.0417 9.41929C15.8 9.60262 16.4959 9.86095 17.1292 10.1943C17.7625 10.5276 18.2709 10.911 18.6542 11.3443C19.0375 11.7776 19.2292 12.2526 19.2292 12.7693V18.5443C19.2292 18.8276 19.1667 19.1026 19.0417 19.3693C18.9167 19.636 18.7375 19.886 18.5042 20.1193C18.2709 20.3526 18 20.5735 17.6917 20.7818C17.3834 20.9901 17.0375 21.1776 16.6542 21.3443C16.6709 21.261 16.6959 21.0276 16.7292 20.6443C16.7292 19.6776 16.3875 18.8526 15.7042 18.1693C15.0209 17.486 14.1959 17.1443 13.2292 17.1443C12.5125 17.1443 11.8792 17.336 11.3292 17.7193C10.7792 18.1026 10.3625 18.5943 10.0792 19.1943C10.6125 19.3276 11.1 19.4193 11.5417 19.4693C11.9834 19.5193 12.3709 19.5443 12.7042 19.5443C12.9875 19.5443 13.2167 19.536 13.3917 19.5193C13.5667 19.5026 13.6792 19.4943 13.7292 19.4943V22.0943C13.5459 22.111 13.3667 22.1235 13.1917 22.1318C13.0167 22.1401 12.8375 22.1443 12.6542 22.1443ZM15.7292 16.6443C16.2792 16.6443 16.75 16.4485 17.1417 16.0568C17.5334 15.6651 17.7292 15.1943 17.7292 14.6443C17.7292 14.0943 17.5334 13.6235 17.1417 13.2318C16.75 12.8401 16.2792 12.6443 15.7292 12.6443C15.1792 12.6443 14.7084 12.8401 14.3167 13.2318C13.925 13.6235 13.7292 14.0943 13.7292 14.6443C13.7292 15.1943 13.925 15.6651 14.3167 16.0568C14.7084 16.4485 15.1792 16.6443 15.7292 16.6443ZM12.7292 8.14429C13.5625 8.14429 14.2709 7.85679 14.8542 7.28179C15.4375 6.70679 15.7292 5.99429 15.7292 5.14429C15.7292 4.31095 15.4375 3.60262 14.8542 3.01929C14.2709 2.43595 13.5625 2.14429 12.7292 2.14429C11.8792 2.14429 11.1667 2.43595 10.5917 3.01929C10.0167 3.60262 9.72919 4.31095 9.72919 5.14429C9.72919 5.99429 10.0167 6.70679 10.5917 7.28179C11.1667 7.85679 11.8792 8.14429 12.7292 8.14429Z" fill="#B4FF1F"/>
</g>
</svg>
