<svg width="24" height="25" viewBox="0 0 24 25" fill="none" xmlns="http://www.w3.org/2000/svg">
<mask id="mask0_302_2971" style="mask-type:alpha" maskUnits="userSpaceOnUse" x="0" y="0" width="24" height="25">
<rect y="0.5" width="24" height="24" fill="#D9D9D9"/>
</mask>
<g mask="url(#mask0_302_2971)">
<path d="M12 12.5C11 12.5 10.15 12.15 9.45 11.45C8.75 10.75 8.4 9.9 8.4 8.9C8.4 7.9 8.75 7.05 9.45 6.35C10.15 5.65 11 5.3 12 5.3C13 5.3 13.85 5.65 14.55 6.35C15.25 7.05 15.6 7.9 15.6 8.9C15.6 9.9 15.25 10.75 14.55 11.45C13.85 12.15 13 12.5 12 12.5ZM4.8 19.7V17.3C4.8 16.9167 4.90417 16.5542 5.1125 16.2125C5.32083 15.8708 5.60833 15.5833 5.975 15.35C6.89167 14.8167 7.8625 14.4083 8.8875 14.125C9.9125 13.8417 10.95 13.7 12 13.7C13.05 13.7 14.0875 13.8417 15.1125 14.125C16.1375 14.4083 17.1083 14.8167 18.025 15.35C18.3917 15.5667 18.6792 15.85 18.8875 16.2C19.0958 16.55 19.2 16.9167 19.2 17.3V19.7H4.8Z" fill="#1E1F22"/>
</g>
</svg>
