<svg width="25" height="25" viewBox="0 0 25 25" fill="none" xmlns="http://www.w3.org/2000/svg">
<mask id="mask0_631_7" style="mask-type:alpha" maskUnits="userSpaceOnUse" x="0" y="0" width="25" height="25">
<rect x="0.433838" y="0.281494" width="24" height="24" fill="#D9D9D9"/>
</mask>
<g mask="url(#mask0_631_7)">
<path d="M6.43384 22.2815C5.88384 22.2815 5.413 22.0857 5.02134 21.694C4.62967 21.3023 4.43384 20.8315 4.43384 20.2815V10.2815C4.43384 9.73149 4.62967 9.26066 5.02134 8.86899C5.413 8.47733 5.88384 8.28149 6.43384 8.28149H7.43384V6.28149C7.43384 4.89816 7.92134 3.71899 8.89634 2.74399C9.87134 1.76899 11.0505 1.28149 12.4338 1.28149C13.8172 1.28149 14.9963 1.76899 15.9713 2.74399C16.9463 3.71899 17.4338 4.89816 17.4338 6.28149V8.28149H18.4338C18.9838 8.28149 19.4547 8.47733 19.8463 8.86899C20.238 9.26066 20.4338 9.73149 20.4338 10.2815V20.2815C20.4338 20.8315 20.238 21.3023 19.8463 21.694C19.4547 22.0857 18.9838 22.2815 18.4338 22.2815H6.43384ZM12.4338 17.2815C12.9838 17.2815 13.4547 17.0857 13.8463 16.694C14.238 16.3023 14.4338 15.8315 14.4338 15.2815C14.4338 14.7315 14.238 14.2607 13.8463 13.869C13.4547 13.4773 12.9838 13.2815 12.4338 13.2815C11.8838 13.2815 11.413 13.4773 11.0213 13.869C10.6297 14.2607 10.4338 14.7315 10.4338 15.2815C10.4338 15.8315 10.6297 16.3023 11.0213 16.694C11.413 17.0857 11.8838 17.2815 12.4338 17.2815ZM9.43384 8.28149H15.4338V6.28149C15.4338 5.44816 15.1422 4.73983 14.5588 4.15649C13.9755 3.57316 13.2672 3.28149 12.4338 3.28149C11.6005 3.28149 10.8922 3.57316 10.3088 4.15649C9.7255 4.73983 9.43384 5.44816 9.43384 6.28149V8.28149Z" fill="#B4FF1F"/>
</g>
</svg>
