<svg width="24" height="24" viewBox="0 0 24 24" fill="none" xmlns="http://www.w3.org/2000/svg">
<mask id="mask0_299_2059" style="mask-type:alpha" maskUnits="userSpaceOnUse" x="0" y="0" width="24" height="24">
<rect width="24" height="24" fill="#D9D9D9"/>
</mask>
<g mask="url(#mask0_299_2059)">
<path d="M6.125 21.75C5.32292 21.75 4.64115 21.4705 4.0797 20.9115C3.51824 20.3524 3.2375 19.6736 3.2375 18.875V5.1125C3.2375 4.31737 3.51702 3.6415 4.07605 3.0849C4.63507 2.5283 5.31389 2.25 6.1125 2.25H16.75V17.875H6.125C5.84167 17.875 5.60417 17.9708 5.4125 18.1625C5.22084 18.3542 5.125 18.5917 5.125 18.875C5.125 19.1583 5.22084 19.3958 5.4125 19.5875C5.60417 19.7792 5.84167 19.875 6.125 19.875H18.875V4.25H20.75V21.75H6.125ZM9 16H14.875V4.1125H9V16ZM7.125 16.0009V4.1125H6.125C5.84167 4.1125 5.60417 4.20833 5.4125 4.4C5.22084 4.59167 5.125 4.82917 5.125 5.1125V16.1875C5.28334 16.1292 5.44375 16.0835 5.60625 16.0505C5.76875 16.0174 5.94167 16.0009 6.125 16.0009H7.125Z" fill="#B4FF1F"/>
</g>
</svg>
