<svg width="24" height="24" viewBox="0 0 24 24" fill="none" xmlns="http://www.w3.org/2000/svg">
<mask id="mask0_299_2086" style="mask-type:alpha" maskUnits="userSpaceOnUse" x="0" y="0" width="24" height="24">
<rect width="24" height="24" fill="#D9D9D9"/>
</mask>
<g mask="url(#mask0_299_2086)">
<path d="M4.16248 18.8125V16.9375H6.03748V10.1625C6.03748 8.77912 6.45623 7.54995 7.29373 6.47495C8.13123 5.39995 9.21664 4.69162 10.55 4.34995V3.69995C10.55 3.30065 10.6907 2.96124 10.972 2.68173C11.2534 2.40221 11.5951 2.26245 11.997 2.26245C12.399 2.26245 12.7416 2.40221 13.025 2.68173C13.3083 2.96124 13.45 3.30065 13.45 3.69995V4.34995C14.7833 4.69162 15.8687 5.39995 16.7062 6.47495C17.5437 7.54995 17.9625 8.77912 17.9625 10.1625V16.9375H19.8375V18.8125H4.16248ZM12 21.7C11.4583 21.7 10.9979 21.5104 10.6187 21.1312C10.2396 20.752 10.05 20.2916 10.05 19.75H13.95C13.95 20.2916 13.7604 20.752 13.3812 21.1312C13.0021 21.5104 12.5416 21.7 12 21.7ZM7.91248 16.9375H16.0875V10.1625C16.0875 9.03838 15.6871 8.07612 14.8865 7.27565C14.0858 6.47518 13.1233 6.07495 11.999 6.07495C10.8746 6.07495 9.91248 6.47518 9.11248 7.27565C8.31248 8.07612 7.91248 9.03838 7.91248 10.1625V16.9375Z" fill="#B4FF1F"/>
</g>
</svg>
