<svg width="24" height="24" viewBox="0 0 24 24" fill="none" xmlns="http://www.w3.org/2000/svg">
<mask id="mask0_299_2178" style="mask-type:alpha" maskUnits="userSpaceOnUse" x="0" y="0" width="24" height="24">
<rect width="24" height="24" transform="matrix(0 -1 -1 0 24 24)" fill="#D9D9D9"/>
</mask>
<g mask="url(#mask0_299_2178)">
<path d="M12.5 12L16.5 8V16L12.5 12ZM21 5C21 4.45 20.8042 3.97917 20.4125 3.5875C20.0208 3.19583 19.55 3 19 3H5C4.45 3 3.97917 3.19583 3.5875 3.5875C3.19583 3.97917 3 4.45 3 5V19C3 19.55 3.19583 20.0208 3.5875 20.4125C3.97917 20.8042 4.45 21 5 21H19C19.55 21 20.0208 20.8042 20.4125 20.4125C20.8042 20.0208 21 19.55 21 19V5ZM10 5H19V19H10L10 5Z" fill="#B4FF1F"/>
</g>
</svg>
