<svg width="24" height="24" viewBox="0 0 24 24" fill="none" xmlns="http://www.w3.org/2000/svg">
<mask id="mask0_376_2639" style="mask-type:alpha" maskUnits="userSpaceOnUse" x="0" y="0" width="24" height="24">
<rect width="24" height="24" fill="#D9D9D9"/>
</mask>
<g mask="url(#mask0_376_2639)">
<path d="M19.15 9.3376L15.625 5.8126L13.5 7.9251L11.4625 5.9001L14.25 3.1001C14.4417 2.90843 14.6562 2.76676 14.8938 2.6751C15.1313 2.58343 15.3708 2.5376 15.6125 2.5376C15.8625 2.5376 16.1063 2.58343 16.3438 2.6751C16.5813 2.76676 16.7917 2.90843 16.975 3.1001L19.1 5.2251C19.3917 5.50843 19.6063 5.8251 19.7438 6.1751C19.8813 6.5251 19.9542 6.8876 19.9625 7.2626C19.9708 7.6376 19.9083 8.00426 19.775 8.3626C19.6417 8.72093 19.4333 9.04593 19.15 9.3376ZM5.6875 13.7251C5.39583 13.4334 5.25 13.0959 5.25 12.7126C5.25 12.3293 5.39583 11.9918 5.6875 11.7001L8.0875 9.2626L10.125 11.3001L7.6875 13.7376C7.40417 14.0293 7.07292 14.173 6.69375 14.1688C6.31458 14.1647 5.97917 14.0168 5.6875 13.7251ZM4.6 20.9001C4.41667 20.7084 4.27708 20.4938 4.18125 20.2563C4.08542 20.0189 4.0375 19.7751 4.0375 19.5251C4.0375 19.2751 4.08333 19.0313 4.175 18.7938C4.26667 18.5564 4.40833 18.3418 4.6 18.1501L11.4625 11.3001L8.25 8.0751C7.95833 7.79176 7.81458 7.45427 7.81875 7.0626C7.82292 6.67093 7.96667 6.32926 8.25 6.0376C8.53333 5.74593 8.87083 5.60218 9.2625 5.60635C9.65417 5.61051 9.99583 5.75843 10.2875 6.0501L13.5 9.2626L14.925 7.8376L17.675 10.6501C17.8667 10.8418 17.9625 11.0584 17.9625 11.3001C17.9625 11.5418 17.8667 11.7584 17.675 11.9501C17.4667 12.1584 17.2396 12.2543 16.9938 12.2376C16.7479 12.2209 16.525 12.1126 16.325 11.9126L7.325 20.9001C7.13333 21.0918 6.92083 21.2334 6.6875 21.3251C6.45417 21.4168 6.21667 21.4626 5.975 21.4626C5.73333 21.4626 5.49167 21.4147 5.25 21.3188C5.00833 21.223 4.79167 21.0834 4.6 20.9001Z" fill="#B4FF1F"/>
</g>
</svg>
