<svg width="48" height="48" viewBox="0 0 48 48" fill="none" xmlns="http://www.w3.org/2000/svg">
<rect width="48" height="48" rx="24" fill="#B4FF1F"/>
<mask id="mask0_302_2975" style="mask-type:alpha" maskUnits="userSpaceOnUse" x="12" y="12" width="24" height="24">
<rect x="12" y="12" width="24" height="24" fill="#D9D9D9"/>
</mask>
<g mask="url(#mask0_302_2975)">
<path d="M24 24C23 24 22.15 23.65 21.45 22.95C20.75 22.25 20.4 21.4 20.4 20.4C20.4 19.4 20.75 18.55 21.45 17.85C22.15 17.15 23 16.8 24 16.8C25 16.8 25.85 17.15 26.55 17.85C27.25 18.55 27.6 19.4 27.6 20.4C27.6 21.4 27.25 22.25 26.55 22.95C25.85 23.65 25 24 24 24ZM16.8 31.2V28.8C16.8 28.4167 16.9042 28.0542 17.1125 27.7125C17.3208 27.3708 17.6083 27.0833 17.975 26.85C18.8917 26.3167 19.8625 25.9083 20.8875 25.625C21.9125 25.3417 22.95 25.2 24 25.2C25.05 25.2 26.0875 25.3417 27.1125 25.625C28.1375 25.9083 29.1083 26.3167 30.025 26.85C30.3917 27.0667 30.6792 27.35 30.8875 27.7C31.0958 28.05 31.2 28.4167 31.2 28.8V31.2H16.8Z" fill="#1E1F22"/>
</g>
</svg>
