<svg width="24" height="24" viewBox="0 0 24 24" fill="none" xmlns="http://www.w3.org/2000/svg">
<mask id="mask0_659_7" style="mask-type:alpha" maskUnits="userSpaceOnUse" x="0" y="0" width="24" height="24">
<rect width="24" height="24" fill="#D9D9D9"/>
</mask>
<g mask="url(#mask0_659_7)">
<path d="M5.9875 17.0875C6.85417 16.4458 7.78958 15.9458 8.79375 15.5875C9.79792 15.2292 10.8667 15.05 12 15.05C13.1333 15.05 14.2021 15.2292 15.2063 15.5875C16.2104 15.9458 17.1458 16.4458 18.0125 17.0875C18.6208 16.3792 19.0833 15.5967 19.4 14.7402C19.7167 13.8839 19.875 12.9699 19.875 11.9983C19.875 9.80775 19.1104 7.94792 17.5813 6.41875C16.0521 4.88958 14.1917 4.125 12 4.125C9.80833 4.125 7.94792 4.88958 6.41875 6.41875C4.88958 7.94792 4.125 9.80775 4.125 11.9983C4.125 12.9699 4.28333 13.8839 4.6 14.7402C4.91667 15.5967 5.37917 16.3792 5.9875 17.0875ZM12.0027 12.95C11.0342 12.95 10.2167 12.6176 9.55 11.9528C8.88333 11.2879 8.55 10.4712 8.55 9.50275C8.55 8.53425 8.88242 7.71667 9.54725 7.05C10.2121 6.38333 11.0288 6.05 11.9973 6.05C12.9658 6.05 13.7833 6.38242 14.45 7.04725C15.1167 7.71208 15.45 8.52875 15.45 9.49725C15.45 10.4658 15.1176 11.2833 14.4528 11.95C13.7879 12.6167 12.9712 12.95 12.0027 12.95ZM12 21.75C10.6515 21.75 9.38425 21.4937 8.19825 20.981C7.01242 20.4682 5.98083 19.7723 5.1035 18.8935C4.22617 18.0145 3.53125 16.9826 3.01875 15.7978C2.50625 14.6131 2.25 13.3472 2.25 12C2.25 10.6515 2.50633 9.38425 3.019 8.19825C3.53183 7.01242 4.22767 5.98083 5.1065 5.1035C5.9855 4.22617 7.01742 3.53125 8.20225 3.01875C9.38692 2.50625 10.6528 2.25 12 2.25C13.3485 2.25 14.6158 2.50633 15.8018 3.019C16.9876 3.53183 18.0192 4.22767 18.8965 5.1065C19.7738 5.9855 20.4688 7.01742 20.9813 8.20225C21.4938 9.38692 21.75 10.6528 21.75 12C21.75 13.3485 21.4937 14.6158 20.981 15.8018C20.4682 16.9876 19.7723 18.0192 18.8935 18.8965C18.0145 19.7738 16.9826 20.4688 15.7977 20.9813C14.6131 21.4938 13.3472 21.75 12 21.75ZM12 19.875C12.8667 19.875 13.6813 19.75 14.4438 19.5C15.2063 19.25 15.925 18.8833 16.6 18.4C15.925 17.925 15.2063 17.5604 14.4438 17.3063C13.6813 17.0521 12.8672 16.925 12.0015 16.925C11.1358 16.925 10.3192 17.05 9.5515 17.3C8.78383 17.55 8.06667 17.9167 7.4 18.4C8.075 18.8833 8.79375 19.25 9.55625 19.5C10.3188 19.75 11.1333 19.875 12 19.875ZM12 11.075C12.4417 11.075 12.8146 10.9229 13.1188 10.6188C13.4229 10.3146 13.575 9.94167 13.575 9.5C13.575 9.05833 13.4229 8.68542 13.1188 8.38125C12.8146 8.07708 12.4417 7.925 12 7.925C11.5583 7.925 11.1854 8.07708 10.8813 8.38125C10.5771 8.68542 10.425 9.05833 10.425 9.5C10.425 9.94167 10.5771 10.3146 10.8813 10.6188C11.1854 10.9229 11.5583 11.075 12 11.075Z" fill="#B4FF1F"/>
</g>
</svg>
